<?xml version="1.0" encoding="UTF-8" standalone="no"?>
<!DOCTYPE svg PUBLIC "-//W3C//DTD SVG 1.1//EN" "http://www.w3.org/Graphics/SVG/1.1/DTD/svg11.dtd">
<svg width="100%" height="100%" viewBox="0 0 20 20" version="1.1" xmlns="http://www.w3.org/2000/svg" xmlns:xlink="http://www.w3.org/1999/xlink" xml:space="preserve" xmlns:serif="http://www.serif.com/" style="fill-rule:evenodd;clip-rule:evenodd;stroke-linejoin:round;stroke-miterlimit:2;">
    <g transform="matrix(0.75,0,0,1.5,0.25,-14)">
        <rect x="1" y="14" width="4" height="4" style="fill:rgb(189,189,189);"/>
        <path d="M6.333,18.667L-0.333,18.667L-0.333,13.333L6.333,13.333L6.333,18.667ZM5,14L1,14L1,18L5,18L5,14Z" style="fill:rgb(58,58,58);"/>
    </g>
    <g transform="matrix(1,0,0,2.5,6,-30)">
        <rect x="1" y="14" width="4" height="4" style="fill:rgb(223,110,65);"/>
        <path d="M6,18.4L-0,18.4L-0,13.6L6,13.6L6,18.4ZM5,14L1,14L1,18L5,18L5,14Z" style="fill:rgb(58,58,58);"/>
    </g>
    <g transform="matrix(1.25,0,0,4,12.75,-54)">
        <rect x="1" y="14" width="4" height="4" style="fill:rgb(72,170,181);"/>
        <path d="M5.8,18.25L0.2,18.25L0.2,13.75L5.8,13.75L5.8,18.25ZM5,14L1,14L1,18L5,18L5,14Z" style="fill:rgb(58,58,58);"/>
    </g>
</svg>
